<svg width="100.000000" height="60.000000" viewBox="0 0 100 60" fill="none" xmlns="http://www.w3.org/2000/svg" xmlns:xlink="http://www.w3.org/1999/xlink">
	<desc>
			Created with Pixso.
	</desc>
	<defs>
		<clipPath id="clip246_2094">
			<rect id="logo" width="100.000000" height="60.000000" fill="white" fill-opacity="0"/>
		</clipPath>
	</defs>
	<g clip-path="url(#clip246_2094)">
		<path id="Ellipse 4" d="M69 25C69 35.4934 60.4932 44 50 44C39.5068 44 31 35.4934 31 25C31 14.5066 39.5068 6 50 6C60.4932 6 69 14.5066 69 25Z" fill="#B0907A" fill-opacity="1.000000" fill-rule="nonzero"/>
		<path id="Vector" d="M95.6787 22.2913C95.8857 22.2732 96.0537 22.3547 96.1816 22.5364C96.3262 22.7166 96.4131 22.9739 96.4424 23.3086C96.4922 23.8823 96.4004 24.3884 96.165 24.8264C95.7793 25.551 95.2363 26.1365 94.5361 26.5833C93.8525 27.0286 93.0088 27.2949 92.0039 27.3828C90.4736 27.5168 89.2471 27.1665 88.3223 26.3318C87.3965 25.4812 86.8662 24.2749 86.7295 22.7129C86.6328 21.613 86.7744 20.5728 87.1543 19.5918C87.5332 18.5952 88.1045 17.7822 88.8691 17.1533C89.6484 16.5229 90.5566 16.1624 91.5928 16.0718C92.5176 15.9907 93.2832 16.2048 93.8896 16.7139C94.4951 17.207 94.8389 17.9238 94.9209 18.8643C95.0166 19.9641 94.7012 20.9473 93.9746 21.814C93.2617 22.6633 91.9775 23.4021 90.1211 24.0303C90.5674 24.73 91.2451 25.04 92.1533 24.9607C92.8076 24.9036 93.3281 24.7053 93.7158 24.3662C94.1201 24.0256 94.5693 23.4724 95.0645 22.7063C95.2344 22.4507 95.4395 22.3123 95.6787 22.2913ZM91.3916 18.4502C90.8018 18.502 90.3291 18.8884 89.9746 19.6101C89.6367 20.3303 89.5098 21.1768 89.5947 22.1489L89.5986 22.1968C90.5195 21.8914 91.2314 21.4917 91.7344 20.998C92.2373 20.5044 92.4629 19.9626 92.4121 19.3728C92.3848 19.0701 92.2764 18.8386 92.0859 18.6787C91.9102 18.5012 91.6787 18.4253 91.3916 18.4502Z" fill="#403F3D" fill-opacity="1.000000" fill-rule="nonzero"/>
		<path id="Vector" d="M83.2979 28.1445C81.7354 28.2812 80.4775 27.9497 79.5244 27.1497C78.5859 26.3325 78.0527 25.1985 77.9258 23.748C77.8135 22.457 77.9688 21.303 78.3936 20.2861C78.8193 19.2693 79.415 18.4622 80.1816 17.865C80.9482 17.2681 81.7783 16.9304 82.6709 16.8523C83.5479 16.7756 84.248 16.9792 84.7725 17.4634C85.3105 17.9302 85.6162 18.5701 85.6875 19.3831C85.7461 20.0525 85.6436 20.6316 85.3809 21.1204C85.1348 21.6077 84.7725 21.8723 84.2939 21.9141C83.9912 21.9407 83.7383 21.8904 83.5342 21.7637C83.3467 21.6355 83.2412 21.4441 83.2188 21.189C83.209 21.0774 83.2139 20.9485 83.2334 20.8022C83.2529 20.656 83.2676 20.5503 83.2783 20.4851C83.3369 20.2393 83.3574 20.0125 83.3389 19.8054C83.3203 19.5981 83.251 19.4436 83.1299 19.3418C83.0244 19.2385 82.876 19.1953 82.6846 19.2122C82.3184 19.2441 81.9902 19.4414 81.7002 19.8042C81.4102 20.1509 81.1934 20.6113 81.0508 21.186C80.9082 21.7605 80.8662 22.3826 80.9248 23.052C81.0869 24.9011 81.9727 25.7551 83.582 25.6143C84.2354 25.5571 84.918 25.2805 85.6299 24.7847C86.3555 24.2715 87.0469 23.5444 87.7031 22.6035C87.875 22.3638 88.0811 22.2334 88.3193 22.2124C88.5273 22.1943 88.6943 22.2759 88.8232 22.4575C88.9668 22.6375 89.0537 22.895 89.083 23.2297C89.1357 23.8354 89.0283 24.3428 88.7588 24.7517C88.0908 25.7417 87.2529 26.5378 86.2451 27.1399C85.252 27.7246 84.2695 28.0596 83.2979 28.1445Z" fill="#403F3D" fill-opacity="1.000000" fill-rule="nonzero"/>
		<path id="Vector" d="M69.5479 29.3477C68.9424 29.4006 68.4844 29.1194 68.1729 28.5042C67.8779 27.8875 67.6699 26.8779 67.5469 25.4753C67.3652 23.4033 67.4883 21.4089 67.915 19.4924C68.0176 19.0176 68.2197 18.6628 68.5205 18.4277C68.8359 18.1753 69.2881 18.0232 69.8779 17.9717C70.1963 17.9436 70.4229 17.9641 70.5576 18.0325C70.6924 18.1011 70.7695 18.2468 70.7891 18.47C70.8105 18.7251 70.7412 19.3093 70.5811 20.2229C70.4766 20.8745 70.3984 21.4434 70.3447 21.9299C70.291 22.4165 70.2627 23.0132 70.2598 23.7202C70.666 22.3032 71.1582 21.136 71.7363 20.218C72.3145 19.3003 72.8984 18.6309 73.4883 18.2097C74.0938 17.7874 74.6592 17.5532 75.1855 17.5073C76.2217 17.4165 76.7852 17.8892 76.876 18.9253C76.8936 19.1326 76.8662 19.6409 76.792 20.4504C76.7207 21.0991 76.6914 21.5032 76.7051 21.6626C76.7539 22.2205 76.9775 22.4819 77.376 22.447C77.8223 22.408 78.3662 22.0071 79.0059 21.2444C79.1953 21.019 79.4014 20.8967 79.624 20.8772C79.8311 20.8591 79.999 20.9407 80.127 21.1223C80.2705 21.2864 80.3545 21.52 80.3818 21.8228C80.4326 22.4126 80.3145 22.8887 80.0244 23.2512C79.6191 23.7527 79.1279 24.197 78.5508 24.5847C77.9893 24.9551 77.374 25.1697 76.7041 25.2283C75.8594 25.3022 75.1953 25.1436 74.7109 24.7522C74.2432 24.3594 73.9766 23.7964 73.9131 23.0632C73.8916 22.8242 73.8945 22.583 73.9219 22.3398C73.9258 22.0181 73.9229 21.8015 73.9131 21.6899C73.8906 21.4351 73.792 21.3152 73.6172 21.3306C73.3779 21.3513 73.083 21.6501 72.7314 22.2271C72.3945 22.7866 72.0742 23.5212 71.7676 24.4314C71.4619 25.3416 71.2324 26.2932 71.0781 27.2864C70.9688 28.0508 70.8057 28.5791 70.5908 28.8708C70.3896 29.1455 70.042 29.3044 69.5479 29.3477Z" fill="#403F3D" fill-opacity="1.000000" fill-rule="nonzero"/>
		<path id="Vector" d="M59.2451 30.2488C58.5283 30.3115 57.9092 30.0364 57.3906 29.4233C56.8857 28.793 56.5898 27.9836 56.5029 26.9954C56.3984 25.8 56.3828 24.7012 56.4561 23.699C56.5273 22.6809 56.6973 21.5979 56.9668 20.4502C57.084 19.958 57.2773 19.5957 57.5459 19.3635C57.8145 19.1311 58.2598 18.9878 58.8818 18.9333C59.2324 18.9028 59.4766 18.9375 59.6133 19.0381C59.7666 19.137 59.8535 19.2981 59.873 19.5212C59.8838 19.6489 59.834 20.0869 59.7227 20.8354C59.6152 21.439 59.5342 21.9841 59.4805 22.4707C59.3076 24.1721 59.2461 25.302 59.2949 25.8599C59.3242 26.1946 59.3848 26.4302 59.4775 26.5667C59.5684 26.687 59.7012 26.7397 59.876 26.7244C60.1152 26.7034 60.3896 26.4385 60.6982 25.9297C61.0234 25.4194 61.3418 24.6609 61.6553 23.6536C61.9854 22.645 62.2783 21.4148 62.5371 19.9626C62.623 19.4734 62.7842 19.114 63.0215 18.8845C63.2734 18.6536 63.6631 18.5151 64.1895 18.469C64.5557 18.437 64.8154 18.4624 64.9668 18.5457C65.1172 18.6128 65.2031 18.7659 65.2236 19.0049C65.2588 19.4033 65.1553 20.5127 64.9131 22.3328C64.6445 24.4119 64.5322 25.6907 64.5742 26.1689C64.6006 26.4717 64.6846 26.7051 64.8281 26.8694C64.9697 27.0176 65.1436 27.0828 65.3506 27.0645C65.6699 27.0366 66.0273 26.8125 66.4248 26.3923C66.8359 25.9548 67.3701 25.2656 68.0264 24.325C68.1982 24.085 68.4033 23.9546 68.6426 23.9338C68.8496 23.9155 69.0176 23.9973 69.1455 24.1787C69.29 24.3589 69.377 24.6165 69.4062 24.9512C69.4619 25.5886 69.3535 26.0959 69.0811 26.4731C68.4697 27.3779 67.79 28.136 67.04 28.7478C66.3066 29.3579 65.4375 29.707 64.4336 29.7949C63.668 29.8618 63.0762 29.6165 62.6582 29.0588C62.2559 28.4998 62.0088 27.6863 61.915 26.6184C61.7393 27.7258 61.4053 28.5981 60.915 29.2354C60.4238 29.8567 59.8672 30.1943 59.2451 30.2488Z" fill="#403F3D" fill-opacity="1.000000" fill-rule="nonzero"/>
		<path id="Vector" d="M57.5605 22.8796C57.7676 22.8613 57.9365 22.9512 58.0664 23.1484C58.1953 23.3459 58.2744 23.604 58.3027 23.9229C58.3691 24.688 58.1777 25.1624 57.7285 25.3464C56.8008 25.7646 55.7656 26.0481 54.6221 26.1963C54.4365 27.5615 53.9336 28.6899 53.1113 29.5808C52.2891 30.4558 51.3115 30.9429 50.1797 31.042C49.2236 31.1255 48.3828 30.9663 47.6562 30.564C46.9463 30.1604 46.3828 29.5913 45.9658 28.8569C45.5479 28.1226 45.2998 27.3091 45.2217 26.4165C45.1162 25.2051 45.2529 24.1089 45.6328 23.1282C46.0117 22.1313 46.584 21.3342 47.3506 20.7373C48.1162 20.1243 48.9932 19.7744 49.9814 19.688C51.1934 19.582 52.2021 19.9194 53.0088 20.7C53.8311 21.4631 54.3594 22.4529 54.5938 23.6692C55.3389 23.5557 56.2178 23.3184 57.2305 22.9568C57.3545 22.9136 57.4648 22.8879 57.5605 22.8796ZM50.1494 28.491C50.6592 28.4463 51.0801 28.2007 51.4102 27.7542C51.7559 27.3064 51.959 26.6863 52.0186 25.894C51.4951 25.6025 51.0742 25.1978 50.7559 24.6794C50.4531 24.1599 50.2754 23.5972 50.2227 22.9915C50.2002 22.7366 50.2021 22.4795 50.2275 22.2202L50.1074 22.2307C49.4697 22.2864 48.9629 22.644 48.5869 23.3032C48.2256 23.9453 48.0938 24.824 48.1914 25.9397C48.2686 26.8164 48.4941 27.4712 48.8691 27.9041C49.2607 28.3357 49.6875 28.5312 50.1494 28.491Z" fill="#403F3D" fill-opacity="1.000000" fill-rule="nonzero"/>
		<path id="Vector" d="M40.3096 32.4355C39.4805 32.5081 38.8262 32.3726 38.3467 32.0291C37.8828 31.6841 37.6299 31.2725 37.5879 30.7944C37.5518 30.3799 37.6719 30.0081 37.9482 29.6787C38.2246 29.3494 38.6572 29.1589 39.2471 29.1074C39.4541 29.0891 39.6953 29.0923 39.9707 29.1162C40.2607 29.123 40.4775 29.1282 40.623 29.1316C40.5703 28.7185 40.4404 28.3364 40.2334 27.9851C40.042 27.6326 39.8037 27.3 39.5195 26.9875C39.2334 26.6592 38.9678 26.3772 38.7227 26.1418C38.3105 27.1255 37.8848 27.9497 37.4453 28.6145C37.0215 29.2781 36.5469 29.9138 36.0225 30.5217C35.7607 30.8337 35.4697 31.0037 35.1514 31.0317C34.8965 31.054 34.6816 30.9844 34.5068 30.823C34.3311 30.6458 34.2305 30.4216 34.207 30.1506C34.1787 29.8318 34.2646 29.5271 34.4639 29.2368L34.7412 28.8269C35.5234 27.6665 36.1064 26.7161 36.4922 25.9756C36.7227 25.4897 36.9873 24.8481 37.2871 24.051C37.585 23.2378 37.874 22.4016 38.1514 21.542C38.3936 20.8142 38.9922 20.4084 39.9482 20.3247C40.3945 20.2859 40.709 20.2983 40.8916 20.3628C41.0732 20.4272 41.1729 20.5469 41.1875 20.7224C41.1963 20.8179 41.1777 20.9722 41.1318 21.1851C41.0859 21.3977 41.0166 21.6125 40.9229 21.8296C40.6865 22.4285 40.5859 22.9272 40.6201 23.3257C40.6416 23.5647 40.7441 23.8208 40.9287 24.0938C41.1289 24.3652 41.4238 24.7009 41.8115 25.1006C42.3809 25.7253 42.8135 26.2656 43.1104 26.7217C43.4219 27.1602 43.6016 27.6584 43.6504 28.2163C43.6641 28.3755 43.668 28.6001 43.6611 28.8899C44.416 28.5186 45.2617 27.6335 46.1992 26.2346C46.3711 25.9946 46.5762 25.8643 46.8154 25.8433C47.0225 25.8252 47.1904 25.907 47.3184 26.0884C47.4629 26.2686 47.5498 26.5259 47.5791 26.8606C47.6318 27.4663 47.5234 27.9736 47.2549 28.3828C46.5439 29.4407 45.8379 30.1851 45.1367 30.6157C44.4502 31.0291 43.5742 31.2986 42.5098 31.4238C41.9189 32.0215 41.1855 32.3586 40.3096 32.4355Z" fill="#403F3D" fill-opacity="1.000000" fill-rule="nonzero"/>
		<path id="Vector" d="M36.6172 26.7356C36.8242 26.7175 36.9922 26.7993 37.1201 26.9807C37.2646 27.1609 37.3516 27.4182 37.3809 27.7529C37.4365 28.3906 37.3281 28.8979 37.0557 29.2751C36.5293 30.0439 35.75 30.7786 34.7197 31.479C33.7041 32.1782 32.583 32.5815 31.3555 32.689C29.6826 32.8352 28.3438 32.4946 27.3398 31.667C26.3359 30.8394 25.7646 29.6365 25.627 28.0586C25.5303 26.9587 25.6719 25.9185 26.0518 24.9375C26.4307 23.9409 27.002 23.1279 27.7666 22.499C28.5459 21.8687 29.4541 21.5081 30.4902 21.4175C31.415 21.3364 32.1807 21.5505 32.7871 22.0596C33.3926 22.5527 33.7363 23.2695 33.8184 24.21C33.9141 25.3098 33.5986 26.293 32.8721 27.1597C32.1592 28.009 30.8828 28.7471 29.042 29.3738C29.5049 30.0723 30.2939 30.3726 31.4102 30.2749C32.127 30.2122 32.918 29.894 33.7832 29.3206C34.6631 28.7295 35.4023 27.9983 36.001 27.127C36.1729 26.887 36.3779 26.7566 36.6172 26.7356ZM30.2891 23.7959C29.6992 23.8477 29.2266 24.2341 28.8721 24.9558C28.5342 25.676 28.4072 26.5225 28.4922 27.4946L28.4961 27.5425C29.417 27.2371 30.1289 26.8374 30.6318 26.3438C31.1348 25.8501 31.3604 25.3083 31.3096 24.7185C31.2822 24.4158 31.1738 24.1843 30.9834 24.0244C30.8076 23.8469 30.5762 23.771 30.2891 23.7959Z" fill="#403F3D" fill-opacity="1.000000" fill-rule="nonzero"/>
		<path id="Vector" d="M27.6904 27.5168C27.8975 27.4985 28.0654 27.5803 28.1943 27.7617C28.3379 27.9419 28.4248 28.1995 28.4541 28.5342C28.5088 29.1558 28.4004 29.6631 28.1299 30.0562C27.4453 31.0476 26.7354 31.8325 25.999 32.4109C25.2607 32.9734 24.3584 33.3013 23.29 33.3945C22.2539 33.4854 21.3447 33.2837 20.5635 32.79C19.7969 32.2949 19.0283 31.3984 18.2559 30.1008C17.6348 29.063 17.1514 28.3022 16.8037 27.8188C16.4551 27.3193 16.1191 26.9712 15.7969 26.7747C15.4902 26.5764 15.1201 26.4724 14.6855 26.4622C14.6504 26.8025 14.5596 27.8706 14.4111 29.6663C14.3535 30.4744 14.3164 30.9675 14.2998 31.1458C14.2256 32.1318 13.9727 32.9089 13.54 33.4768C13.1064 34.0286 12.4033 34.3472 11.4316 34.4321C10.3633 34.5256 9.3877 34.2979 8.50488 33.7485C7.63574 33.1821 6.92969 32.3606 6.38574 31.2839C5.84082 30.1912 5.50488 28.9277 5.37988 27.4932C5.14551 24.8154 5.40527 22.4639 6.16016 20.4382C6.92969 18.4116 8.10742 16.8147 9.69141 15.6482C11.291 14.4644 13.1895 13.7764 15.3896 13.5837C16.9199 13.45 18.2227 13.5688 19.2998 13.9404C20.376 14.312 21.1973 14.8826 21.7617 15.6523C22.3428 16.4207 22.6787 17.3147 22.7676 18.335C22.8457 19.2275 22.707 20.123 22.3525 21.0212C22.0117 21.9023 21.4473 22.7065 20.6602 23.4341C19.8721 24.1614 18.8867 24.7375 17.7031 25.1621C18.4863 25.3025 19.1055 25.5857 19.5605 26.0117C20.0156 26.4375 20.4893 27.0789 20.9814 27.9351C21.5117 28.8523 22.0107 29.5154 22.4805 29.9241C22.9658 30.3313 23.4951 30.5098 24.0693 30.4595C24.5791 30.415 25.0508 30.2051 25.4834 29.8298C25.915 29.4387 26.4453 28.7981 27.0742 27.908C27.2461 27.668 27.4512 27.5376 27.6904 27.5168ZM11.3838 26.7271C10.8418 26.7744 10.4561 26.6797 10.2266 26.4429C10.0127 26.2043 9.89258 25.926 9.86426 25.6072C9.83105 25.2246 9.92383 24.9114 10.1436 24.6672C10.3789 24.4219 10.6562 24.2852 10.9746 24.2573L11.5723 24.2048C11.6914 22.6206 11.8125 21.2527 11.9365 20.1016C12.0527 19.0474 12.6768 18.4709 13.8086 18.3718C14.7178 18.2922 15.207 18.6589 15.2783 19.4719C15.2939 19.6472 15.2979 19.7834 15.29 19.8804L14.9199 23.9121C15.7764 23.7891 16.5391 23.5134 17.209 23.0854C17.8936 22.656 18.415 22.0964 18.7725 21.4067C19.1455 20.7156 19.2959 19.9556 19.2236 19.1267C19.1357 18.1226 18.7236 17.3635 17.9883 16.8499C17.252 16.3359 16.2236 16.137 14.9004 16.2527C13.3379 16.3894 12.002 16.8997 10.8906 17.7839C9.79395 18.6509 8.98535 19.8779 8.46582 21.4653C7.94531 23.0366 7.78027 24.9141 7.9707 27.0979C8.06055 28.1179 8.24023 28.9856 8.51172 29.7007C8.7832 30.4158 9.08691 30.9434 9.42188 31.2834C9.75586 31.6235 10.0596 31.7817 10.3301 31.7581C10.5371 31.7397 10.6953 31.6216 10.8047 31.4033C10.9307 31.1833 11.0127 30.8389 11.0518 30.3699L11.3838 26.7271Z" fill="#403F3D" fill-opacity="1.000000" fill-rule="nonzero"/>
		<path id="Vector" d="M78.4033 54L78.4033 48.1819L82.1875 48.1819L82.1875 49.0654L79.457 49.0654L79.457 50.645L81.9912 50.645L81.9912 51.5286L79.457 51.5286L79.457 53.1165L82.21 53.1165L82.21 54L78.4033 54Z" fill="#403F3D" fill-opacity="1.000000" fill-rule="nonzero"/>
		<path id="Vector" d="M75.9697 49.7812C75.9434 49.5332 75.832 49.3401 75.6348 49.2017C75.4395 49.0635 75.1855 48.9944 74.873 48.9944C74.6533 48.9944 74.4648 49.0276 74.3076 49.0938C74.1504 49.1602 74.0303 49.25 73.9473 49.3638C73.8633 49.4773 73.8213 49.6069 73.8193 49.7529C73.8193 49.874 73.8467 49.9792 73.9014 50.0681C73.958 50.1572 74.0352 50.2329 74.1318 50.2954C74.2285 50.3562 74.335 50.4072 74.4531 50.449C74.5703 50.4905 74.6885 50.5256 74.8076 50.554L75.3535 50.6904C75.5732 50.7415 75.7842 50.8105 75.9873 50.8977C76.1914 50.9849 76.374 51.0947 76.5352 51.2273C76.6982 51.3599 76.8271 51.52 76.9219 51.7075C77.0166 51.895 77.0635 52.1145 77.0635 52.3665C77.0635 52.7075 76.9766 53.0076 76.8018 53.2671C76.6279 53.5247 76.376 53.7263 76.0469 53.8721C75.7188 54.0161 75.3223 54.0881 74.8564 54.0881C74.4033 54.0881 74.0107 54.0181 73.6768 53.8779C73.3457 53.7378 73.0859 53.5332 72.8984 53.2642C72.7129 52.9954 72.6133 52.6677 72.5977 52.2812L73.6348 52.2812C73.6494 52.4839 73.7119 52.6526 73.8223 52.7869C73.9316 52.9214 74.0752 53.0217 74.251 53.0881C74.4287 53.1543 74.6279 53.1875 74.8477 53.1875C75.0771 53.1875 75.2773 53.1533 75.4502 53.0852C75.624 53.0151 75.7607 52.9187 75.8594 52.7954C75.957 52.6704 76.0078 52.5247 76.0098 52.3579C76.0078 52.2065 75.9629 52.0815 75.876 51.9829C75.7891 51.8826 75.667 51.7993 75.5098 51.7329C75.3545 51.6648 75.1729 51.6042 74.9639 51.5513L74.3018 51.3806C73.8232 51.2576 73.4443 51.071 73.166 50.821C72.8896 50.5691 72.751 50.2349 72.751 49.8181C72.751 49.4753 72.8438 49.1753 73.0293 48.9177C73.2168 48.6602 73.4717 48.4602 73.7939 48.3181C74.1152 48.1743 74.4805 48.1023 74.8877 48.1023C75.3008 48.1023 75.6621 48.1743 75.9727 48.3181C76.2852 48.4602 76.5303 48.6582 76.708 48.9119C76.8867 49.1638 76.9785 49.4536 76.9844 49.7812L75.9697 49.7812Z" fill="#403F3D" fill-opacity="1.000000" fill-rule="nonzero"/>
		<path id="Vector" d="M70.209 48.1819L71.2627 48.1819L71.2627 51.9829C71.2627 52.3997 71.1641 52.7661 70.9668 53.0825C70.7725 53.3987 70.4971 53.646 70.1436 53.824C69.7891 54 69.375 54.0881 68.9014 54.0881C68.4268 54.0881 68.0117 54 67.6572 53.824C67.3037 53.646 67.0283 53.3987 66.834 53.0825C66.6387 52.7661 66.541 52.3997 66.541 51.9829L66.541 48.1819L67.5947 48.1819L67.5947 51.895C67.5947 52.1375 67.6484 52.3533 67.7539 52.5427C67.8623 52.7322 68.0137 52.8809 68.209 52.9888C68.4033 53.0947 68.6348 53.1477 68.9014 53.1477C69.1689 53.1477 69.4004 53.0947 69.5947 52.9888C69.792 52.8809 69.9434 52.7322 70.0498 52.5427C70.1553 52.3533 70.209 52.1375 70.209 51.895L70.209 48.1819Z" fill="#403F3D" fill-opacity="1.000000" fill-rule="nonzero"/>
		<path id="Vector" d="M65.1445 51.0908C65.1445 51.7178 65.0273 52.2546 64.792 52.7017C64.5596 53.1467 64.2412 53.4878 63.8379 53.7244C63.4365 53.9612 62.9805 54.0796 62.4707 54.0796C61.9619 54.0796 61.5049 53.9612 61.1016 53.7244C60.7002 53.4858 60.3818 53.144 60.1475 52.699C59.9141 52.252 59.7979 51.7158 59.7979 51.0908C59.7979 50.4641 59.9141 49.928 60.1475 49.4829C60.3818 49.0359 60.7002 48.6941 61.1016 48.4575C61.5049 48.2207 61.9619 48.1023 62.4707 48.1023C62.9805 48.1023 63.4365 48.2207 63.8379 48.4575C64.2412 48.6941 64.5596 49.0359 64.792 49.4829C65.0273 49.928 65.1445 50.4641 65.1445 51.0908ZM64.085 51.0908C64.085 50.6497 64.0156 50.2776 63.877 49.9744C63.7412 49.6694 63.5518 49.4395 63.3096 49.2842C63.0664 49.127 62.7871 49.0483 62.4707 49.0483C62.1553 49.0483 61.876 49.127 61.6328 49.2842C61.3906 49.4395 61.2002 49.6694 61.0625 49.9744C60.9258 50.2776 60.8574 50.6497 60.8574 51.0908C60.8574 51.5322 60.9258 51.9053 61.0625 52.2102C61.2002 52.5132 61.3906 52.7434 61.6328 52.9006C61.876 53.0559 62.1553 53.1335 62.4707 53.1335C62.7871 53.1335 63.0664 53.0559 63.3096 52.9006C63.5518 52.7434 63.7412 52.5132 63.877 52.2102C64.0156 51.9053 64.085 51.5322 64.085 51.0908Z" fill="#403F3D" fill-opacity="1.000000" fill-rule="nonzero"/>
		<path id="Vector" d="M53.5918 54L53.5918 48.1819L54.6455 48.1819L54.6455 50.645L57.3418 50.645L57.3418 48.1819L58.3984 48.1819L58.3984 54L57.3418 54L57.3418 51.5286L54.6455 51.5286L54.6455 54L53.5918 54Z" fill="#403F3D" fill-opacity="1.000000" fill-rule="nonzero"/>
		<path id="Vector" d="M45.9482 54L45.9482 48.1819L49.7324 48.1819L49.7324 49.0654L47.002 49.0654L47.002 50.645L49.5361 50.645L49.5361 51.5286L47.002 51.5286L47.002 53.1165L49.7549 53.1165L49.7549 54L45.9482 54Z" fill="#403F3D" fill-opacity="1.000000" fill-rule="nonzero"/>
		<path id="Vector" d="M40.6895 54L40.6895 48.1819L44.4736 48.1819L44.4736 49.0654L41.7432 49.0654L41.7432 50.645L44.2773 50.645L44.2773 51.5286L41.7432 51.5286L41.7432 53.1165L44.4961 53.1165L44.4961 54L40.6895 54Z" fill="#403F3D" fill-opacity="1.000000" fill-rule="nonzero"/>
		<path id="Vector" d="M35.6016 54L35.6016 48.1819L39.3291 48.1819L39.3291 49.0654L36.6553 49.0654L36.6553 50.645L39.0732 50.645L39.0732 51.5286L36.6553 51.5286L36.6553 54L35.6016 54Z" fill="#403F3D" fill-opacity="1.000000" fill-rule="nonzero"/>
		<path id="Vector" d="M30.5137 54L30.5137 48.1819L34.2412 48.1819L34.2412 49.0654L31.5674 49.0654L31.5674 50.645L33.9854 50.645L33.9854 51.5286L31.5674 51.5286L31.5674 54L30.5137 54Z" fill="#403F3D" fill-opacity="1.000000" fill-rule="nonzero"/>
		<path id="Vector" d="M29.1182 51.0908C29.1182 51.7178 29.001 52.2546 28.7656 52.7017C28.5332 53.1467 28.2148 53.4878 27.8115 53.7244C27.4102 53.9612 26.9541 54.0796 26.4443 54.0796C25.9355 54.0796 25.4785 53.9612 25.0752 53.7244C24.6738 53.4858 24.3555 53.144 24.1211 52.699C23.8877 52.252 23.7715 51.7158 23.7715 51.0908C23.7715 50.4641 23.8877 49.928 24.1211 49.4829C24.3555 49.0359 24.6738 48.6941 25.0752 48.4575C25.4785 48.2207 25.9355 48.1023 26.4443 48.1023C26.9541 48.1023 27.4102 48.2207 27.8115 48.4575C28.2148 48.6941 28.5332 49.0359 28.7656 49.4829C29.001 49.928 29.1182 50.4641 29.1182 51.0908ZM28.0586 51.0908C28.0586 50.6497 27.9893 50.2776 27.8506 49.9744C27.7148 49.6694 27.5254 49.4395 27.2832 49.2842C27.04 49.127 26.7607 49.0483 26.4443 49.0483C26.1289 49.0483 25.8496 49.127 25.6064 49.2842C25.3643 49.4395 25.1738 49.6694 25.0361 49.9744C24.8994 50.2776 24.8311 50.6497 24.8311 51.0908C24.8311 51.5322 24.8994 51.9053 25.0361 52.2102C25.1738 52.5132 25.3643 52.7434 25.6064 52.9006C25.8496 53.0559 26.1289 53.1335 26.4443 53.1335C26.7607 53.1335 27.04 53.0559 27.2832 52.9006C27.5254 52.7434 27.7148 52.5132 27.8506 52.2102C27.9893 51.9053 28.0586 51.5322 28.0586 51.0908Z" fill="#403F3D" fill-opacity="1.000000" fill-rule="nonzero"/>
		<path id="Vector" d="M22.5537 50.145L21.4912 50.145C21.4609 49.9707 21.4053 49.8164 21.3232 49.6819C21.2422 49.5454 21.1406 49.4299 21.0195 49.3352C20.8984 49.2405 20.7598 49.1694 20.6045 49.1221C20.4512 49.073 20.2852 49.0483 20.1074 49.0483C19.791 49.0483 19.5107 49.1279 19.2666 49.2869C19.0225 49.4441 18.8311 49.6753 18.6924 49.9802C18.5547 50.2832 18.4854 50.6533 18.4854 51.0908C18.4854 51.5359 18.5547 51.9109 18.6924 52.2158C18.833 52.519 19.0244 52.748 19.2666 52.9033C19.5107 53.0569 19.79 53.1335 20.1045 53.1335C20.2793 53.1335 20.4414 53.1108 20.5938 53.0654C20.7471 53.0181 20.8838 52.949 21.0049 52.8579C21.1289 52.7671 21.2314 52.6553 21.3154 52.5227C21.4004 52.3901 21.459 52.2388 21.4912 52.0681L22.5537 52.074C22.5137 52.3503 22.4277 52.6099 22.2949 52.8523C22.1641 53.0947 21.9932 53.3088 21.7812 53.4944C21.5684 53.678 21.3203 53.822 21.0361 53.9263C20.7529 54.0283 20.4375 54.0796 20.0908 54.0796C19.5791 54.0796 19.123 53.9612 18.7217 53.7244C18.3193 53.4878 18.0039 53.1458 17.7725 52.699C17.541 52.252 17.4258 51.7158 17.4258 51.0908C17.4258 50.4641 17.542 49.928 17.7754 49.4829C18.0078 49.0359 18.3252 48.6941 18.7266 48.4575C19.1289 48.2207 19.583 48.1023 20.0908 48.1023C20.4141 48.1023 20.7158 48.1477 20.9941 48.2388C21.2725 48.3296 21.5205 48.4631 21.7383 48.6392C21.9561 48.8135 22.1348 49.0276 22.2754 49.2812C22.417 49.5332 22.5098 49.821 22.5537 50.145Z" fill="#403F3D" fill-opacity="1.000000" fill-rule="nonzero"/>
	</g>
</svg>
